<?xml version="1.0" encoding="UTF-8" standalone="no"?>
<svg
   xmlns:dc="http://purl.org/dc/elements/1.1/"
   xmlns:cc="http://creativecommons.org/ns#"
   xmlns:rdf="http://www.w3.org/1999/02/22-rdf-syntax-ns#"
   xmlns:svg="http://www.w3.org/2000/svg"
   xmlns="http://www.w3.org/2000/svg"
   viewBox="0 0 408.66748 97.33386"
   height="97.333862"
   width="408.66748"
   xml:space="preserve"
   id="svg2"
   version="1.1"><metadata
     id="metadata8"><rdf:RDF><cc:Work
         rdf:about=""><dc:format>image/svg+xml</dc:format><dc:type
           rdf:resource="http://purl.org/dc/dcmitype/StillImage" /></cc:Work></rdf:RDF></metadata><defs
     id="defs6" /><g
     transform="matrix(1.3333333,0,0,-1.3333333,-665.48917,186.92133)"
     id="g10"><g
       transform="scale(0.1)"
       id="g12"><path
         id="path14"
         style="fill:#626575;fill-opacity:1;fill-rule:nonzero;stroke:none"
         d="m 5896.01,1069.38 h -52.86 c -29.9,0 -54.23,24.3 -54.23,54.18 v 88.24 c 0,29.87 24.33,54.18 54.23,54.18 l 52.83,0.22 h 0.03 c 5.56,0 10.07,-4.49 10.1,-10.06 0.02,-5.56 -4.48,-10.09 -10.07,-10.12 l -52.83,-0.22 c -18.83,0 -34.11,-15.26 -34.11,-34 v -88.24 c 0,-18.74 15.28,-34.01 34.05,-34.01 h 52.86 c 5.56,0 10.1,-4.5 10.1,-10.07 0,-5.57 -4.54,-10.1 -10.1,-10.1" /><path
         id="path16"
         style="fill:#626575;fill-opacity:1;fill-rule:nonzero;stroke:none"
         d="m 6044.97,1069.2 h -62.7 c -29.91,0 -54.27,24.34 -54.27,54.24 v 88.35 c 0,29.9 24.36,54.24 54.27,54.24 h 25.25 c 29.9,0 54.24,-24.34 54.24,-54.24 v -49.05 h -94.41 c -5.56,0 -10.07,4.51 -10.07,10.1 0,5.57 4.51,10.07 10.07,10.07 h 74.22 v 28.88 c 0,18.79 -15.28,34.05 -34.05,34.05 h -25.25 c -18.8,0 -34.07,-15.26 -34.07,-34.05 v -88.35 c 0,-18.77 15.27,-34.06 34.07,-34.06 h 62.7 c 5.57,0 10.11,-4.5 10.11,-10.07 0,-5.6 -4.54,-10.11 -10.11,-10.11" /><path
         id="path18"
         style="fill:#626575;fill-opacity:1;fill-rule:nonzero;stroke:none"
         d="m 6637.65,1070.22 h -31.26 c -14.99,0 -28.92,7.35 -39.21,20.72 -9.7,12.6 -15.02,29.25 -15.02,46.88 0,35.79 22.29,60.81 54.23,60.81 h 44.46 c 5.6,0 10.11,-4.54 10.11,-10.11 0,-5.57 -4.51,-10.1 -10.11,-10.1 h -44.46 c -20.36,0 -34.06,-16.33 -34.06,-40.6 0,-26.16 15.3,-47.43 34.06,-47.43 h 31.26 c 18.8,0 34.06,15.27 34.06,34.04 v 88.39 c 0,18.75 -15.26,34.04 -34.06,34.04 h -58.26 c -5.56,0 -10.07,4.51 -10.07,10.08 0,5.59 4.51,10.1 10.07,10.1 h 58.26 c 29.9,0 54.23,-24.34 54.23,-54.22 v -88.39 c 0,-29.88 -24.33,-54.21 -54.23,-54.21" /><path
         id="path20"
         style="fill:#626575;fill-opacity:1;fill-rule:nonzero;stroke:none"
         d="m 6470.12,1069.2 h -31.92 c -29.9,0 -54.26,24.34 -54.26,54.24 v 88.4 c 0,29.9 24.36,54.24 54.26,54.24 h 45.31 c 5.56,0 10.07,-4.53 10.07,-10.1 0,-5.58 -4.51,-10.11 -10.07,-10.11 h -45.31 c -18.77,0 -34.05,-15.26 -34.05,-34.03 v -88.4 c 0,-18.77 15.28,-34.06 34.05,-34.06 h 31.92 c 18.79,0 34.05,15.29 34.05,34.06 v 220.8 c 0,5.6 4.54,10.11 10.11,10.11 5.56,0 10.08,-4.51 10.08,-10.11 v -220.8 c 0,-29.9 -24.31,-54.24 -54.24,-54.24" /><path
         id="path22"
         style="fill:#626575;fill-opacity:1;fill-rule:nonzero;stroke:none"
         d="m 6161.08,1069.2 h -57.88 c -5.56,0 -10.1,4.51 -10.1,10.11 0,5.57 4.54,10.07 10.1,10.07 h 57.88 c 18.09,0 32.81,14.73 32.81,32.78 0,15.51 -11.03,29 -26.21,32.1 l -28.25,5.87 c -4.53,0.82 -10.91,2.69 -12.93,3.45 -20.37,7.79 -34.05,27.67 -34.05,49.48 0,29.2 23.79,52.97 52.99,52.97 h 43.67 c 5.57,0 10.1,-4.51 10.1,-10.08 0,-5.59 -4.53,-10.11 -10.1,-10.11 h -43.67 c -18.1,0 -32.81,-14.68 -32.81,-32.78 0,-13.5 8.47,-25.8 21.1,-30.61 0.98,-0.38 6.06,-1.9 9.35,-2.44 l 0.29,-0.08 28.38,-5.89 c 24.5,-4.97 42.31,-26.81 42.31,-51.88 0,-29.19 -23.76,-52.96 -52.98,-52.96" /><path
         id="path24"
         style="fill:#626575;fill-opacity:1;fill-rule:nonzero;stroke:none"
         d="m 6302.32,1069.2 h -57.87 c -5.57,0 -10.1,4.51 -10.1,10.11 0,5.57 4.53,10.07 10.1,10.07 h 57.87 c 18.09,0 32.82,14.73 32.82,32.78 0,15.51 -11.04,29 -26.21,32.1 l -28.28,5.87 c -4.51,0.82 -10.88,2.69 -12.9,3.45 -20.37,7.79 -34.06,27.67 -34.06,49.48 0,29.2 23.77,52.97 52.99,52.97 h 43.67 c 5.57,0 10.08,-4.51 10.08,-10.08 0,-5.59 -4.51,-10.11 -10.08,-10.11 h -43.67 c -18.09,0 -32.8,-14.68 -32.8,-32.78 0,-13.5 8.46,-25.8 21.07,-30.61 1.01,-0.38 6.09,-1.87 9.34,-2.44 l 0.33,-0.08 28.38,-5.89 c 24.49,-4.97 42.31,-26.81 42.31,-51.88 0,-29.19 -23.77,-52.96 -52.99,-52.96" /><path
         id="path26"
         style="fill:#a5cdea;fill-opacity:1;fill-rule:nonzero;stroke:none"
         d="m 5666.71,1160.79 -104.57,104.55 c -0.59,0.61 -1.28,1.17 -1.93,1.75 l -81.81,81.16 c -71.48,71.47 -187.69,71.55 -259.08,0.15 l -90.27,-90.26 -84.37,-84.37 c -22.31,-22.33 -37.66,-49.01 -46,-77.34 -18.39,-62.34 -3.01,-132.629 46.13,-181.75 l 104.57,-104.571 c 0.62,-0.613 1.25,-1.14 1.93,-1.738 l 81.81,-81.172 c 71.47,-71.472 187.69,-71.523 259.09,-0.125 l 174.63,174.629 c 71.39,71.395 71.34,187.617 -0.13,259.087" /><path
         id="path28"
         style="fill:#fcfeff;fill-opacity:1;fill-rule:nonzero;stroke:none"
         d="m 4993.1,1070.85 v -0.03 0.03 m 0.1,0.72 c 0,-0.02 0,-0.05 0,-0.05 0,0 0,0.03 0,0.05 m 0.11,0.72 c 0,-0.03 0,-0.06 0,-0.08 0,0.02 0,0.05 0,0.08 m 0.1,0.72 c 0,-0.03 0,-0.09 0,-0.11 0,0.02 0,0.08 0,0.11 m 0.11,0.67 c 0,-0.04 0,-0.04 0,-0.06 0,0.02 0,0.02 0,0.06 m 0.47,2.74 c -0.02,-0.06 -0.02,-0.11 -0.04,-0.19 0.02,0.05 0.02,0.13 0.04,0.19 m 0.14,0.74 c -0.03,-0.12 -0.05,-0.23 -0.08,-0.34 0.03,0.11 0.05,0.22 0.08,0.34 m 0.14,0.75 c -0.03,-0.16 -0.06,-0.32 -0.08,-0.46 0.02,0.17 0.05,0.3 0.08,0.46 m 0.12,0.72 c -0.01,-0.16 -0.04,-0.32 -0.07,-0.45 0.03,0.13 0.06,0.29 0.07,0.45 m 0.14,0.72 c -0.03,-0.16 -0.05,-0.32 -0.08,-0.45 0.03,0.15 0.05,0.29 0.08,0.45 m 0.14,0.72 c -0.03,-0.16 -0.06,-0.29 -0.08,-0.46 0.02,0.17 0.05,0.3 0.08,0.46 m 0.15,0.74 c -0.03,-0.15 -0.07,-0.32 -0.1,-0.47 0.03,0.15 0.07,0.32 0.1,0.47 m 0.14,0.76 c -0.03,-0.17 -0.06,-0.33 -0.08,-0.51 0.02,0.18 0.05,0.34 0.08,0.51 m 0.16,0.74 c -0.03,-0.19 -0.05,-0.35 -0.11,-0.54 0.06,0.19 0.08,0.35 0.11,0.54 m 0.15,0.74 c -0.02,-0.19 -0.07,-0.37 -0.09,-0.56 0.02,0.19 0.07,0.37 0.09,0.56 m 0.2,0.75 c -0.06,-0.18 -0.11,-0.4 -0.14,-0.59 0.03,0.19 0.08,0.41 0.14,0.59 m 1.03,4.53 c -0.37,-1.46 -0.69,-2.93 -1.01,-4.4 0.32,1.47 0.66,2.94 1.01,4.4 m 0.19,0.72 c -0.05,-0.21 -0.11,-0.42 -0.16,-0.64 0.05,0.22 0.11,0.43 0.16,0.64 m 0.16,0.72 c -0.02,-0.19 -0.08,-0.4 -0.13,-0.62 0.05,0.22 0.11,0.4 0.13,0.62 m 0.19,0.72 c -0.06,-0.19 -0.09,-0.4 -0.14,-0.58 0.05,0.18 0.08,0.39 0.14,0.58 m 0.19,0.69 c -0.06,-0.18 -0.09,-0.35 -0.14,-0.53 0.05,0.18 0.08,0.35 0.14,0.53 m 0.18,0.72 c -0.03,-0.16 -0.08,-0.35 -0.13,-0.5 0.05,0.15 0.1,0.34 0.13,0.5 m 0.22,0.72 c -0.06,-0.16 -0.11,-0.32 -0.14,-0.51 0.03,0.19 0.08,0.35 0.14,0.51 m 0.18,0.74 c -0.06,-0.18 -0.08,-0.34 -0.13,-0.52 0.05,0.18 0.07,0.34 0.13,0.52 m 0.22,0.69 c -0.06,-0.15 -0.11,-0.34 -0.17,-0.49 0.06,0.15 0.11,0.34 0.17,0.49 m 0.18,0.73 c -0.06,-0.16 -0.08,-0.32 -0.13,-0.51 0.05,0.17 0.07,0.35 0.13,0.51 m 0.21,0.75 c -0.05,-0.19 -0.1,-0.35 -0.16,-0.54 0.06,0.19 0.11,0.37 0.16,0.54 m 0.27,0.9 c -0.08,-0.23 -0.14,-0.48 -0.21,-0.72 0.07,0.24 0.13,0.49 0.21,0.72 m 350.04,305.46 c -46.87,0 -93.73,-17.84 -129.41,-53.52 35.68,35.68 82.54,53.52 129.41,53.52 46.93,0 93.92,-17.88 129.68,-53.64 l 81.81,-81.18 c 0.64,-0.56 1.3,-1.12 1.92,-1.73 l 53.99,-54 c 0,0.03 0,0.03 -0.03,0.06 l -53.96,53.94 c -0.62,0.61 -1.28,1.17 -1.92,1.73 l -81.81,81.18 c -35.76,35.76 -82.75,53.64 -129.68,53.64" /><path
         id="path30"
         style="fill:#b5d6ee;fill-opacity:1;fill-rule:nonzero;stroke:none"
         d="m 4998.99,1097.43 c -0.1,-0.34 -0.21,-0.66 -0.29,-1.01 0.08,0.35 0.19,0.67 0.29,1.01 m 0.35,1.18 c -0.08,-0.32 -0.19,-0.64 -0.3,-0.99 0.11,0.32 0.22,0.67 0.3,0.99 m 0.37,1.2 c -0.08,-0.33 -0.19,-0.67 -0.3,-1.02 0.11,0.35 0.22,0.69 0.3,1.02 m 349.03,302.1 c -46.9,0 -93.76,-17.84 -129.43,-53.52 l -90.25,-90.25 -84.39,-84.38 c -21.4,-21.4 -36.38,-46.85 -44.93,-73.89 7.27,23.01 19.23,44.82 35.82,64 l 35.79,35.82 90.25,90.24 c 35.69,35.68 82.54,53.51 129.42,53.51 46.95,0 93.93,-17.88 129.67,-53.65 l 81.84,-81.17 c 0.64,-0.59 1.31,-1.12 1.92,-1.73 l 104.54,-104.55 c 20.72,-20.71 35.42,-45.17 44.12,-71.2 20.25,60.62 7.88,129.88 -36.97,180.22 l -53.99,54 c -0.62,0.61 -1.28,1.14 -1.93,1.72 l -81.8,81.19 c -35.77,35.73 -82.76,53.64 -129.68,53.64" /><path
         id="path32"
         style="fill:#fcfeff;fill-opacity:1;fill-rule:nonzero;stroke:none"
         d="m 5485.39,720.578 c -34.72,-31.336 -78.64,-47 -122.59,-47 43.95,0 87.87,15.664 122.59,47 m -486.35,377.042 c 0,-0.05 -0.03,-0.11 -0.06,-0.19 0.03,0.08 0.06,0.14 0.06,0.19 m 0.37,1.17 c -0.03,-0.05 -0.04,-0.13 -0.07,-0.18 0.03,0.05 0.04,0.13 0.07,0.18 m 0.33,1.07 c 0,-0.02 0,-0.02 0,-0.05 0,0.03 0,0.03 0,0.05" /><path
         id="path34"
         style="fill:#b5d6ee;fill-opacity:1;fill-rule:nonzero;stroke:none"
         d="m 4993.09,1070.81 c -1.28,-8.85 -1.92,-17.77 -1.92,-26.7 0.05,-46.872 17.93,-93.747 53.64,-129.43 l 104.57,-104.578 c 0.62,-0.606 1.28,-1.145 1.93,-1.731 l 81.81,-81.172 c 35.77,-35.742 82.72,-53.652 129.67,-53.652 43.95,0 87.89,15.703 122.59,47.043 2.33,2.078 4.61,4.238 6.83,6.473 l 124.02,124.023 c 44.78,50.234 57.11,119.394 36.89,180.054 -8.7,-25.96 -23.34,-50.347 -43.98,-70.972 L 5434.51,785.531 c -35.68,-35.683 -82.54,-53.508 -129.41,-53.508 -46.96,0 -93.91,17.883 -129.68,53.645 l -81.84,81.172 c -0.64,0.566 -1.28,1.094 -1.89,1.738 l -56.2,56.172 c -35.66,41.387 -49.82,95.01 -42.4,146.06 m 0.1,0.7 c -0.03,-0.22 -0.07,-0.45 -0.1,-0.67 0.03,0.22 0.07,0.45 0.1,0.67 m 0.11,0.69 c -0.05,-0.22 -0.08,-0.42 -0.11,-0.63 0.03,0.21 0.06,0.41 0.11,0.63 m 0.11,0.69 c -0.06,-0.18 -0.08,-0.4 -0.11,-0.61 0.03,0.21 0.05,0.43 0.11,0.61 m 0.11,0.73 c -0.03,-0.22 -0.06,-0.41 -0.11,-0.62 0.05,0.21 0.08,0.4 0.11,0.62 m 0.44,2.6 c -0.15,-0.84 -0.32,-1.7 -0.44,-2.56 0.12,0.86 0.29,1.72 0.44,2.56 m 0.08,0.59 c 0,-0.13 -0.02,-0.26 -0.05,-0.4 0.03,0.14 0.05,0.27 0.05,0.4 m 0.14,0.64 c -0.03,-0.1 -0.05,-0.18 -0.05,-0.29 0,0.11 0.02,0.19 0.05,0.29 m 0.14,0.72 c -0.03,-0.1 -0.06,-0.19 -0.06,-0.27 0,0.08 0.03,0.17 0.06,0.27 m 0.12,0.72 c -0.02,-0.08 -0.05,-0.19 -0.05,-0.26 0.03,0.07 0.03,0.18 0.05,0.26 m 0.14,0.72 c -0.03,-0.07 -0.03,-0.18 -0.06,-0.26 0.03,0.1 0.03,0.19 0.06,0.26 m 0.16,0.75 c -0.02,-0.11 -0.05,-0.19 -0.08,-0.3 0.03,0.11 0.06,0.19 0.08,0.3 m 0.13,0.72 c -0.03,-0.11 -0.03,-0.19 -0.06,-0.27 0.03,0.08 0.03,0.16 0.06,0.27 m 0.14,0.69 c 0,-0.08 -0.03,-0.14 -0.03,-0.22 0,0.08 0.03,0.14 0.03,0.22 m 0.16,0.72 c -0.03,-0.06 -0.03,-0.13 -0.05,-0.19 0.02,0.06 0.02,0.13 0.05,0.19 m 0.15,0.72 c -0.02,-0.05 -0.02,-0.11 -0.05,-0.16 0.03,0.05 0.03,0.11 0.05,0.16 m 0.17,0.72 c -0.03,-0.03 -0.03,-0.08 -0.03,-0.14 0,0.06 0,0.11 0.03,0.14 m 1.03,4.47 c 0,-0.02 -0.03,-0.05 -0.03,-0.08 0,0.03 0.03,0.06 0.03,0.08 m 0.19,0.75 c -0.02,-0.02 -0.02,-0.06 -0.02,-0.1 0,0.04 0,0.08 0.02,0.1 m 0.18,0.74 c -0.01,-0.02 -0.01,-0.07 -0.01,-0.12 0,0.05 0,0.08 0.01,0.12 m 0.19,0.76 c 0,-0.06 -0.02,-0.11 -0.05,-0.17 0.03,0.06 0.05,0.11 0.05,0.17 m 0.2,0.74 c 0,-0.05 -0.03,-0.14 -0.06,-0.21 0.03,0.07 0.06,0.16 0.06,0.21 m 0.2,0.74 c -0.02,-0.08 -0.05,-0.15 -0.08,-0.23 0.03,0.08 0.06,0.15 0.08,0.23 m 0.2,0.69 c -0.03,-0.04 -0.06,-0.12 -0.06,-0.18 0.03,0.06 0.03,0.11 0.06,0.18 m 0.18,0.73 c 0,-0.05 -0.03,-0.11 -0.06,-0.19 0.03,0.08 0.06,0.14 0.06,0.19 m 0.21,0.72 c -0.02,-0.06 -0.05,-0.14 -0.05,-0.22 0,0.08 0.03,0.16 0.05,0.22 m 0.21,0.71 c -0.02,-0.05 -0.05,-0.12 -0.08,-0.2 0.03,0.08 0.06,0.15 0.08,0.2 m 0.19,0.73 c 0,-0.05 -0.02,-0.11 -0.05,-0.19 0.03,0.08 0.05,0.14 0.05,0.19" /><path
         id="path36"
         style="fill:#bfdcf0;fill-opacity:1;fill-rule:nonzero;stroke:none"
         d="m 5362.88,774.035 c -22.23,0 -43.14,8.664 -58.82,24.367 l -104.46,103.614 -1.23,1.035 -0.45,0.633 h -0.03 l -0.03,0.031 -82,82 c -11.7,11.73 -19.56,26.495 -22.73,42.725 -5.28,27.07 3.17,54.85 22.6,74.27 l 84.38,84.37 90.25,90.27 c 15.54,15.51 36.22,24.06 58.29,24.06 22.22,0 43.15,-8.66 58.81,-24.34 l 104.47,-103.61 0.27,-0.23 0.55,-0.59 82.91,-82.91 c 15.59,-15.62 24.22,-36.38 24.25,-58.5 0.06,-22.12 -8.52,-42.878 -24.12,-58.464 L 5421.16,798.109 c -15.53,-15.519 -36.24,-24.074 -58.28,-24.074 m -71.84,569.395 c -46.89,0 -93.76,-17.82 -129.42,-53.5 l -90.26,-90.24 -35.79,-35.79 c -16.58,-19.19 -28.57,-41.02 -35.84,-64.04 0,-0.03 0,-0.03 0,-0.05 -0.11,-0.33 -0.22,-0.68 -0.33,-1.02 -0.02,-0.06 -0.04,-0.13 -0.04,-0.18 -0.11,-0.32 -0.22,-0.65 -0.3,-0.97 -0.03,-0.08 -0.06,-0.13 -0.09,-0.21 -0.07,-0.35 -0.18,-0.67 -0.29,-1.01 -0.08,-0.24 -0.13,-0.48 -0.2,-0.72 0,-0.05 -0.03,-0.11 -0.06,-0.16 -0.05,-0.18 -0.11,-0.37 -0.16,-0.54 0,-0.07 -0.03,-0.15 -0.06,-0.21 -0.05,-0.19 -0.1,-0.34 -0.12,-0.5 -0.03,-0.09 -0.06,-0.16 -0.06,-0.22 -0.05,-0.18 -0.11,-0.35 -0.16,-0.53 0,-0.05 -0.03,-0.11 -0.06,-0.16 -0.05,-0.18 -0.08,-0.37 -0.12,-0.56 -0.03,-0.05 -0.06,-0.13 -0.06,-0.19 -0.05,-0.18 -0.11,-0.34 -0.13,-0.5 -0.03,-0.09 -0.06,-0.17 -0.08,-0.21 -0.03,-0.19 -0.09,-0.35 -0.13,-0.54 0,-0.05 -0.03,-0.13 -0.06,-0.18 -0.05,-0.19 -0.08,-0.38 -0.13,-0.53 -0.03,-0.09 -0.03,-0.14 -0.06,-0.2 -0.02,-0.18 -0.08,-0.37 -0.13,-0.58 -0.02,-0.02 -0.02,-0.08 -0.02,-0.11 -0.06,-0.21 -0.11,-0.42 -0.16,-0.61 -0.03,-0.06 -0.03,-0.08 -0.03,-0.13 -0.06,-0.22 -0.11,-0.43 -0.17,-0.64 -0.02,-0.03 -0.02,-0.06 -0.02,-0.09 -0.35,-1.43 -0.69,-2.9 -1.01,-4.36 -0.03,-0.06 -0.03,-0.11 -0.03,-0.14 -0.05,-0.21 -0.11,-0.4 -0.13,-0.61 -0.03,-0.05 -0.03,-0.11 -0.06,-0.16 -0.03,-0.18 -0.07,-0.37 -0.1,-0.56 -0.02,-0.05 -0.02,-0.1 -0.05,-0.18 -0.03,-0.17 -0.06,-0.35 -0.11,-0.54 0,-0.05 -0.03,-0.13 -0.06,-0.21 -0.02,-0.16 -0.05,-0.33 -0.08,-0.48 -0.03,-0.08 -0.05,-0.19 -0.05,-0.27 -0.03,-0.16 -0.05,-0.29 -0.1,-0.46 0,-0.07 -0.03,-0.18 -0.06,-0.26 -0.02,-0.15 -0.05,-0.32 -0.08,-0.45 -0.03,-0.11 -0.03,-0.18 -0.05,-0.27 -0.03,-0.16 -0.06,-0.31 -0.08,-0.48 -0.03,-0.08 -0.06,-0.16 -0.06,-0.26 -0.02,-0.16 -0.04,-0.3 -0.07,-0.45 -0.03,-0.09 -0.06,-0.19 -0.06,-0.28 -0.02,-0.15 -0.05,-0.29 -0.08,-0.44 -0.02,-0.08 -0.05,-0.19 -0.05,-0.3 -0.03,-0.11 -0.06,-0.24 -0.08,-0.35 -0.03,-0.13 -0.06,-0.23 -0.06,-0.37 -0.03,-0.08 -0.03,-0.13 -0.04,-0.19 -0.14,-0.85 -0.3,-1.7 -0.43,-2.58 0,0 0,-0.02 0,-0.05 -0.03,-0.19 -0.08,-0.4 -0.11,-0.62 0,-0.02 0,-0.05 0,-0.08 -0.05,-0.21 -0.08,-0.43 -0.11,-0.63 0,-0.03 0,-0.06 0,-0.09 -0.05,-0.21 -0.08,-0.42 -0.11,-0.64 0,0 0,-0.02 0,-0.05 -0.05,-0.21 -0.07,-0.42 -0.1,-0.67 0,0 0,0 0,-0.03 -7.41,-51.05 6.74,-104.675 42.4,-146.062 l 56.2,-56.172 c 0.59,-0.613 1.26,-1.152 1.89,-1.738 l 81.85,-81.172 c 35.73,-35.761 82.71,-53.64 129.67,-53.64 46.88,0 93.73,17.82 129.41,53.504 l 174.64,174.64 c 20.63,20.625 35.28,45.01 43.97,70.97 -8.72,26.03 -23.4,50.5 -44.11,71.21 l -104.57,104.54 c -0.61,0.61 -1.28,1.15 -1.92,1.74 l -81.81,81.17 c -35.77,35.76 -82.75,53.64 -129.67,53.64" /><path
         id="path38"
         style="fill:#80c3ec;fill-opacity:1;fill-rule:nonzero;stroke:none"
         d="m 5362.88,783.539 c -19.7,0 -38.21,7.676 -52.16,21.609 l -104.97,104.122 -83.17,83.175 c -10.36,10.355 -17.33,23.445 -20.12,37.815 -4.67,23.98 2.79,48.55 19.99,65.74 l 174.63,174.61 c 13.72,13.75 32.06,21.32 51.57,21.32 19.69,0 38.22,-7.68 52.15,-21.64 l 104.74,-103.85 1.19,-1.05 0.19,-0.34 82.03,-82.03 c 28.57,-28.59 28.65,-75.05 0.13,-103.555 L 5414.44,804.828 c -13.72,-13.723 -32.06,-21.289 -51.56,-21.289" /><path
         id="path40"
         style="fill:#ffffff;fill-opacity:1;fill-rule:nonzero;stroke:none"
         d="m 5348.65,1282.43 c 16.42,0 32.88,-6.27 45.44,-18.84 l 104.99,-104.15 0.03,-0.03 83.1,-83.09 c 24.91,-24.89 24.97,-65.35 0.15,-90.136 L 5407.73,811.555 c -12.34,-12.364 -28.59,-18.524 -44.85,-18.524 -16.42,0 -32.88,6.289 -45.47,18.848 l -104.97,104.141 -0.02,0.027 -83.12,83.098 c -9.33,9.325 -15.17,20.855 -17.51,32.905 -3.92,20.12 1.86,41.73 17.35,57.22 l 84.4,84.39 90.26,90.24 c 12.34,12.37 28.56,18.53 44.85,18.53 m 0,19 c -22.07,0 -42.74,-8.55 -58.28,-24.09 l -90.26,-90.27 -84.38,-84.37 c -19.42,-19.43 -27.87,-47.2 -22.6,-74.27 3.18,-16.23 11.04,-30.996 22.74,-42.696 l 82,-82.031 0.02,-0.019 h 0.03 l 0.45,-0.645 1.23,-1.035 104.46,-103.613 c 15.68,-15.672 36.59,-24.364 58.82,-24.364 22.04,0 42.75,8.555 58.28,24.09 l 174.64,174.641 c 15.59,15.586 24.17,36.352 24.11,58.492 -0.02,22.09 -8.66,42.86 -24.25,58.5 l -82.91,82.88 -0.55,0.58 -0.27,0.24 -104.47,103.61 c -15.66,15.71 -36.58,24.37 -58.81,24.37" /><path
         id="path42"
         style="fill:#ffffff;fill-opacity:1;fill-rule:nonzero;stroke:none"
         d="m 5319.31,951.098 h -87.16 c -14.72,0 -26.69,11.843 -26.69,26.414 v 54.218 c 0,2.79 -2.27,5.06 -5.06,5.06 -2.79,0 -5.06,-2.27 -5.06,-5.06 v -54.218 c 0,-20.145 16.52,-36.532 36.81,-36.532 h 87.16 c 2.79,0 5.06,2.266 5.06,5.059 0,2.793 -2.27,5.059 -5.06,5.059" /><path
         id="path44"
         style="fill:#ffffff;fill-opacity:1;fill-rule:nonzero;stroke:none"
         d="m 5508.48,978.234 c -2.77,0.391 -5.33,-1.523 -5.73,-4.285 -1.86,-13.027 -13.8,-22.851 -27.79,-22.851 h -60.38 c -2.79,0 -5.05,-2.266 -5.05,-5.059 0,-2.793 2.26,-5.059 5.05,-5.059 h 60.38 c 9.24,0 18.16,3.204 25.11,9.012 6.94,5.813 11.45,13.809 12.69,22.52 0.4,2.765 -1.52,5.324 -4.28,5.722" /><path
         id="path46"
         style="fill:#ffffff;fill-opacity:1;fill-rule:nonzero;stroke:none"
         d="m 5326.56,965.48 c -35.58,10.637 -64.95,12.59 -83.32,12.364 -0.07,0 -0.12,0 -0.19,0 -3.89,0 -7.53,1.484 -10.28,4.191 -2.66,2.637 -4.14,6.121 -4.14,9.824 V 1123.6 c 0,4.89 1.88,9.57 5.29,13.17 3.44,3.63 8.12,5.84 13.19,6.23 16.03,1.24 31.92,0.74 47.21,-1.47 19.64,-2.85 37.72,-8.49 53.8,-16.78 v -145 c 0,-2.793 2.26,-5.051 5.05,-5.051 2.8,0 5.06,2.258 5.06,5.051 v 144.77 c 39.69,20.63 82.73,20.28 105.14,18.17 8.44,-0.79 14.79,-7.6 14.79,-15.82 v -26.41 c 0,-2.79 2.27,-5.06 5.06,-5.06 2.8,0 5.06,2.27 5.06,5.06 v 10.58 c 8.95,-4.56 14.73,-13.48 14.73,-23.26 0,-2.8 2.26,-5.06 5.06,-5.06 2.79,0 5.06,2.26 5.06,5.06 0,15.25 -9.97,28.93 -24.85,34.24 v 4.85 c 0,6.49 -2.46,12.72 -6.92,17.53 -4.44,4.77 -10.49,7.74 -17.04,8.36 -11.67,1.1 -29.9,1.85 -50.36,-0.82 -22.15,-2.89 -42.5,-9.12 -60.56,-18.54 -17.25,8.99 -36.62,15.1 -57.63,18.14 -16.02,2.32 -32.65,2.84 -49.43,1.55 -7.58,-0.59 -14.59,-3.91 -19.76,-9.37 -5.2,-5.49 -8.06,-12.62 -8.06,-20.12 v -1.93 c -0.24,-0.06 -0.46,-0.13 -0.69,-0.22 -8.68,-3.65 -15.55,-10.36 -19.36,-18.93 -1.15,-2.56 0.01,-5.54 2.56,-6.68 0.67,-0.29 1.36,-0.44 2.05,-0.44 1.94,0 3.79,1.13 4.63,3.01 2.26,5.1 6.04,9.29 10.81,12.08 v -20.68 h -18.12 c -2.79,0 -5.06,-2.27 -5.06,-5.06 v -16.24 c 0,-2.8 2.27,-5.06 5.06,-5.06 h 18.12 v -10.72 h -13.06 v 1.94 c 0,2.79 -2.27,5.06 -5.06,5.06 -2.79,0 -5.06,-2.27 -5.06,-5.06 v -7 c 0,-2.79 2.27,-5.06 5.06,-5.06 h 18.12 v -50.751 c 0,-6.425 2.53,-12.472 7.14,-17.023 4.73,-4.668 11.03,-7.188 17.71,-7.098 17.67,0.215 45.93,-1.672 80.29,-11.945 0.49,-0.145 0.97,-0.215 1.46,-0.215 2.17,0 4.18,1.418 4.84,3.606 0.79,2.675 -0.72,5.496 -3.4,6.296" /><path
         id="path48"
         style="fill:#ffffff;fill-opacity:1;fill-rule:nonzero;stroke:none"
         d="m 5454.41,1117.37 c 2.79,-0.13 5.15,2.04 5.27,4.83 0.11,2.79 -2.05,5.15 -4.85,5.26 -19.91,0.84 -49.99,-0.58 -80.24,-12.16 -2.62,-1 -3.92,-3.92 -2.92,-6.53 0.77,-2.02 2.69,-3.25 4.73,-3.25 0.59,0 1.21,0.11 1.8,0.33 28.65,10.96 57.26,12.31 76.21,11.52" /><path
         id="path50"
         style="fill:#ffffff;fill-opacity:1;fill-rule:nonzero;stroke:none"
         d="m 5412.71,1090.01 c -0.51,2.76 -3.15,4.57 -5.89,4.06 -11.23,-2.05 -22.08,-5.06 -32.23,-8.95 -2.62,-0.99 -3.92,-3.92 -2.92,-6.53 0.77,-2.02 2.69,-3.25 4.73,-3.25 0.59,0 1.21,0.1 1.8,0.34 9.57,3.66 19.82,6.5 30.44,8.45 2.75,0.5 4.56,3.14 4.07,5.88" /><path
         id="path52"
         style="fill:#ffffff;fill-opacity:1;fill-rule:nonzero;stroke:none"
         d="m 5389.72,1054.76 c -0.86,2.65 -3.71,4.12 -6.37,3.26 -3.02,-0.97 -6.04,-2.03 -8.97,-3.15 -2.6,-1.01 -3.9,-3.94 -2.91,-6.55 0.78,-2.01 2.69,-3.24 4.73,-3.24 0.6,0 1.21,0.11 1.81,0.34 2.75,1.06 5.59,2.06 8.45,2.98 2.65,0.85 4.12,3.7 3.26,6.36" /><path
         id="path54"
         style="fill:#ffffff;fill-opacity:1;fill-rule:nonzero;stroke:none"
         d="m 5379.76,1026.64 c -1.88,-0.65 -3.76,-1.34 -5.61,-2.05 -2.61,-1 -3.91,-3.93 -2.9,-6.54 0.77,-2 2.7,-3.23 4.72,-3.23 0.6,0 1.22,0.11 1.82,0.34 1.73,0.66 3.51,1.32 5.28,1.92 2.63,0.92 4.03,3.8 3.12,6.44 -0.92,2.64 -3.8,4.04 -6.43,3.12" /><path
         id="path56"
         style="fill:#ffffff;fill-opacity:1;fill-rule:nonzero;stroke:none"
         d="m 5329.41,1115.82 c -29.82,11.12 -59.33,12.47 -78.84,11.64 -2.8,-0.11 -4.96,-2.47 -4.85,-5.26 0.12,-2.79 2.49,-4.96 5.27,-4.83 18.58,0.78 46.66,-0.5 74.89,-11.02 0.58,-0.21 1.18,-0.32 1.77,-0.32 2.05,0 3.98,1.26 4.73,3.29 0.98,2.62 -0.35,5.54 -2.97,6.5" /><path
         id="path58"
         style="fill:#ffffff;fill-opacity:1;fill-rule:nonzero;stroke:none"
         d="m 5327.65,1075.85 c 2.05,0 3.98,1.26 4.73,3.29 0.98,2.62 -0.35,5.53 -2.97,6.51 -29.82,11.11 -59.33,12.46 -78.84,11.64 -2.8,-0.12 -4.96,-2.47 -4.85,-5.27 0.12,-2.79 2.49,-4.96 5.27,-4.84 18.58,0.78 46.66,-0.49 74.89,-11.02 0.58,-0.21 1.18,-0.31 1.77,-0.31" /><path
         id="path60"
         style="fill:#ffffff;fill-opacity:1;fill-rule:nonzero;stroke:none"
         d="m 5250.57,1067.11 c -2.8,-0.11 -4.96,-2.48 -4.85,-5.27 0.12,-2.79 2.49,-4.94 5.27,-4.84 19.57,0.82 38.43,-0.94 56.08,-5.25 0.41,-0.1 0.81,-0.14 1.21,-0.14 2.28,0 4.35,1.54 4.9,3.85 0.67,2.72 -0.99,5.45 -3.71,6.11 -18.56,4.54 -38.39,6.4 -58.9,5.54" /><path
         id="path62"
         style="fill:#ffffff;fill-opacity:1;fill-rule:nonzero;stroke:none"
         d="m 5329.41,1055.47 c -1.71,0.64 -3.47,1.26 -5.22,1.85 -2.65,0.89 -5.52,-0.54 -6.41,-3.19 -0.89,-2.64 0.53,-5.5 3.19,-6.39 1.64,-0.56 3.3,-1.15 4.91,-1.75 0.58,-0.22 1.18,-0.32 1.77,-0.32 2.05,0 3.98,1.26 4.73,3.3 0.98,2.62 -0.35,5.53 -2.97,6.5" /><path
         id="path64"
         style="fill:#ffffff;fill-opacity:1;fill-rule:nonzero;stroke:none"
         d="m 5329.41,1025.29 c -29.82,11.11 -59.33,12.46 -78.84,11.64 -2.8,-0.12 -4.96,-2.47 -4.85,-5.27 0.12,-2.79 2.48,-4.97 5.27,-4.84 18.58,0.78 46.66,-0.49 74.89,-11.01 0.58,-0.21 1.18,-0.32 1.77,-0.32 2.05,0 3.98,1.26 4.73,3.29 0.98,2.62 -0.35,5.54 -2.97,6.51" /><path
         id="path66"
         style="fill:#ffffff;fill-opacity:1;fill-rule:nonzero;stroke:none"
         d="m 5329.41,995.109 c -29.82,11.101 -59.33,12.461 -78.84,11.641 -2.8,-0.12 -4.96,-2.48 -4.85,-5.26 0.12,-2.795 2.48,-4.974 5.27,-4.845 18.58,0.781 46.66,-0.489 74.89,-11.016 0.58,-0.215 1.18,-0.313 1.77,-0.313 2.05,0 3.98,1.258 4.73,3.289 0.98,2.618 -0.35,5.528 -2.97,6.504" /><path
         id="path68"
         style="fill:#ffffff;fill-opacity:1;fill-rule:nonzero;stroke:none"
         d="m 5400.51,1029.63 c 0,30.52 24.82,55.33 55.33,55.33 30.52,0 55.34,-24.81 55.34,-55.33 0,-30.505 -24.82,-55.329 -55.34,-55.329 -30.51,0 -55.33,24.824 -55.33,55.329 z m 55.33,-63.603 c 35.08,0 63.6,28.536 63.6,63.603 0,35.07 -28.52,63.6 -63.6,63.6 -35.07,0 -63.6,-28.53 -63.6,-63.6 0,-20.15 9.42,-38.134 24.08,-49.794 l -55.48,-50.781 c -1.74,-1.563 -3.97,-2.352 -6.31,-2.227 -2.34,0.129 -4.49,1.152 -6.05,2.891 -1.58,1.75 -2.37,3.996 -2.24,6.328 0.13,2.336 1.15,4.492 2.89,6.055 0.02,0.019 0.03,0.031 0.05,0.05 l 35.37,33.153 c 1.67,1.554 1.77,4.172 0.22,5.84 -1.56,1.671 -4.17,1.769 -5.84,0.214 l -35.36,-33.132 c -3.36,-3.039 -5.35,-7.207 -5.59,-11.739 -0.24,-4.543 1.31,-8.906 4.34,-12.297 3.36,-3.73 8.01,-5.632 12.68,-5.632 4.06,0 8.13,1.433 11.39,4.355 0.01,0.008 0.02,0.02 0.02,0.027 l 56.88,52.071 c 9.53,-5.703 20.67,-8.985 32.55,-8.985" /><path
         id="path70"
         style="fill:#ffffff;fill-opacity:1;fill-rule:nonzero;stroke:none"
         d="m 5455.84,984.855 c 24.69,0 44.78,20.095 44.78,44.775 0,11.96 -4.66,23.21 -13.12,31.66 -1.61,1.61 -4.23,1.61 -5.84,0 -1.62,-1.61 -1.62,-4.23 0,-5.85 6.89,-6.89 10.68,-16.05 10.68,-25.81 0,-20.13 -16.37,-36.501 -36.5,-36.501 -9.75,0 -18.92,3.797 -25.81,10.691 -1.61,1.61 -4.23,1.61 -5.85,0 -1.61,-1.61 -1.61,-4.238 0,-5.847 8.46,-8.457 19.71,-13.118 31.66,-13.118" /><path
         id="path72"
         style="fill:#a5cdea;fill-opacity:1;fill-rule:nonzero;stroke:none"
         d="m 5675.98,1159.46 -104.64,104.61 c -0.59,0.62 -1.28,1.19 -1.92,1.77 l -81.87,81.2 c -71.51,71.52 -187.81,71.6 -259.26,0.16 l -90.31,-90.32 -84.44,-84.43 c -22.31,-22.35 -37.67,-49.04 -46.02,-77.39 -18.4,-62.37 -3.02,-132.712 46.16,-181.865 l 104.64,-104.636 c 0.62,-0.618 1.25,-1.153 1.92,-1.739 l 81.87,-81.23 c 71.52,-71.516 187.81,-71.574 259.26,-0.129 l 174.74,174.746 c 71.45,71.445 71.39,187.733 -0.13,259.253" /><path
         id="path74"
         style="fill:#fcfeff;fill-opacity:1;fill-rule:nonzero;stroke:none"
         d="m 5001.92,1069.46 v -0.02 0.02 m 0.11,0.72 c 0,-0.02 0,-0.05 0,-0.05 0,0 0,0.03 0,0.05 m 0.11,0.72 c 0,-0.03 0,-0.05 0,-0.08 0,0.03 0,0.05 0,0.08 m 0.11,0.73 c 0,-0.04 0,-0.08 0,-0.11 0,0.03 0,0.07 0,0.11 m 0.1,0.66 c 0,-0.03 0,-0.03 0,-0.05 0,0.02 0,0.02 0,0.05 m 0.48,2.74 c -0.03,-0.05 -0.03,-0.1 -0.05,-0.18 0.02,0.06 0.02,0.13 0.05,0.18 m 0.14,0.76 c -0.03,-0.14 -0.06,-0.25 -0.09,-0.36 0.03,0.11 0.06,0.22 0.09,0.36 m 0.13,0.74 c -0.02,-0.16 -0.05,-0.32 -0.08,-0.45 0.03,0.15 0.06,0.29 0.08,0.45 m 0.13,0.72 c -0.03,-0.16 -0.05,-0.32 -0.08,-0.45 0.03,0.13 0.05,0.29 0.08,0.45 m 0.14,0.72 c -0.03,-0.17 -0.06,-0.32 -0.09,-0.46 0.03,0.17 0.06,0.29 0.09,0.46 m 0.13,0.73 c -0.02,-0.17 -0.05,-0.3 -0.08,-0.47 0.03,0.17 0.06,0.3 0.08,0.47 m 0.16,0.74 c -0.03,-0.16 -0.09,-0.33 -0.11,-0.48 0.02,0.15 0.08,0.32 0.11,0.48 m 0.13,0.75 c -0.02,-0.17 -0.05,-0.32 -0.08,-0.51 0.03,0.19 0.06,0.34 0.08,0.51 m 0.17,0.74 c -0.03,-0.18 -0.06,-0.35 -0.11,-0.54 0.05,0.19 0.08,0.36 0.11,0.54 m 0.15,0.74 c -0.03,-0.18 -0.08,-0.37 -0.11,-0.55 0.03,0.18 0.08,0.37 0.11,0.55 m 0.19,0.76 c -0.05,-0.19 -0.11,-0.41 -0.13,-0.59 0.02,0.18 0.08,0.4 0.13,0.59 m 1.04,4.53 c -0.38,-1.47 -0.69,-2.93 -1.01,-4.4 0.32,1.47 0.66,2.93 1.01,4.4 m 0.19,0.72 c -0.06,-0.22 -0.11,-0.43 -0.17,-0.64 0.06,0.21 0.11,0.42 0.17,0.64 m 0.15,0.72 c -0.03,-0.19 -0.07,-0.4 -0.12,-0.61 0.05,0.21 0.09,0.4 0.12,0.61 m 0.19,0.71 c -0.05,-0.18 -0.08,-0.4 -0.13,-0.58 0.05,0.18 0.08,0.4 0.13,0.58 m 0.18,0.7 c -0.04,-0.19 -0.07,-0.35 -0.12,-0.53 0.05,0.18 0.08,0.34 0.12,0.53 m 0.2,0.72 c -0.03,-0.15 -0.09,-0.34 -0.14,-0.51 0.05,0.17 0.11,0.36 0.14,0.51 m 0.21,0.72 c -0.05,-0.16 -0.11,-0.32 -0.13,-0.5 0.02,0.18 0.08,0.34 0.13,0.5 m 0.18,0.75 c -0.05,-0.19 -0.08,-0.35 -0.13,-0.53 0.05,0.18 0.08,0.34 0.13,0.53 m 0.22,0.69 c -0.05,-0.16 -0.11,-0.34 -0.16,-0.51 0.05,0.17 0.11,0.35 0.16,0.51 m 0.18,0.72 c -0.05,-0.16 -0.08,-0.32 -0.13,-0.51 0.05,0.16 0.08,0.35 0.13,0.51 m 0.22,0.74 c -0.05,-0.18 -0.11,-0.34 -0.16,-0.52 0.05,0.18 0.11,0.37 0.16,0.52 m 0.27,0.91 c -0.09,-0.23 -0.14,-0.48 -0.22,-0.71 0.08,0.23 0.13,0.48 0.22,0.71 m 350.26,305.65 c -46.9,0 -93.79,-17.83 -129.49,-53.54 35.7,35.71 82.59,53.54 129.49,53.54 46.97,0 93.98,-17.89 129.77,-53.67 l 81.86,-81.23 c 0.65,-0.55 1.31,-1.12 1.93,-1.74 l 54.02,-54.02 c 0,0.03 0,0.03 -0.03,0.05 l -53.99,53.97 c -0.62,0.62 -1.28,1.19 -1.93,1.74 l -81.86,81.23 c -35.79,35.78 -82.8,53.67 -129.77,53.67" /><path
         id="path76"
         style="fill:#b5d6ee;fill-opacity:1;fill-rule:nonzero;stroke:none"
         d="m 5007.82,1096.07 c -0.1,-0.34 -0.2,-0.67 -0.29,-1.02 0.09,0.35 0.19,0.68 0.29,1.02 m 0.35,1.17 c -0.07,-0.31 -0.18,-0.63 -0.29,-0.99 0.11,0.32 0.22,0.68 0.29,0.99 m 0.37,1.2 c -0.07,-0.32 -0.18,-0.66 -0.29,-1.01 0.11,0.35 0.22,0.69 0.29,1.01 m 349.26,302.29 c -46.93,0 -93.81,-17.83 -129.52,-53.54 l -90.29,-90.32 -84.45,-84.42 c -21.42,-21.42 -36.41,-46.89 -44.97,-73.95 7.28,23.04 19.25,44.85 35.84,64.05 l 35.81,35.84 90.33,90.29 c 35.71,35.71 82.58,53.55 129.49,53.55 46.99,0 94,-17.89 129.76,-53.68 l 81.9,-81.22 c 0.63,-0.59 1.31,-1.13 1.92,-1.74 l 104.61,-104.61 c 20.73,-20.72 35.44,-45.21 44.13,-71.26 20.28,60.67 7.9,129.98 -36.98,180.35 l -54.02,54.02 c -0.62,0.62 -1.29,1.16 -1.93,1.74 l -81.86,81.22 c -35.79,35.77 -82.8,53.68 -129.77,53.68" /><path
         id="path78"
         style="fill:#fcfeff;fill-opacity:1;fill-rule:nonzero;stroke:none"
         d="m 5494.55,718.969 c -34.75,-31.36 -78.69,-47.043 -122.67,-47.043 43.98,0 87.92,15.683 122.67,47.043 m -486.67,377.281 c 0,-0.05 -0.03,-0.11 -0.06,-0.18 0.03,0.07 0.06,0.13 0.06,0.18 m 0.37,1.18 c -0.03,-0.05 -0.06,-0.13 -0.08,-0.19 0.02,0.06 0.05,0.14 0.08,0.19 m 0.32,1.06 c 0,-0.02 0,-0.02 0,-0.05 0,0.03 0,0.03 0,0.05" /><path
         id="path80"
         style="fill:#b5d6ee;fill-opacity:1;fill-rule:nonzero;stroke:none"
         d="m 5001.92,1069.44 c -1.28,-8.86 -1.92,-17.8 -1.92,-26.73 0.05,-46.905 17.95,-93.812 53.68,-129.522 l 104.64,-104.641 c 0.62,-0.613 1.28,-1.141 1.92,-1.727 l 81.87,-81.23 c 35.79,-35.762 82.77,-53.684 129.77,-53.684 43.96,0 87.93,15.703 122.66,47.071 2.32,2.082 4.61,4.238 6.83,6.476 l 124.11,124.11 c 44.79,50.265 57.14,119.464 36.9,180.157 -8.69,-25.97 -23.36,-50.372 -44,-71.005 L 5443.63,783.957 c -35.71,-35.703 -82.59,-53.543 -129.49,-53.543 -46.99,0 -93.97,17.891 -129.76,53.68 l -81.9,81.23 c -0.63,0.559 -1.28,1.094 -1.89,1.731 l -56.24,56.218 c -35.69,41.407 -49.85,95.057 -42.43,146.167 m 0.11,0.68 c -0.03,-0.21 -0.09,-0.45 -0.11,-0.66 0.02,0.21 0.08,0.45 0.11,0.66 m 0.1,0.69 c -0.05,-0.2 -0.08,-0.42 -0.1,-0.63 0.02,0.21 0.05,0.43 0.1,0.63 m 0.11,0.7 c -0.05,-0.19 -0.08,-0.39 -0.11,-0.61 0.03,0.22 0.06,0.42 0.11,0.61 m 0.1,0.72 c -0.02,-0.21 -0.05,-0.4 -0.1,-0.62 0.05,0.22 0.08,0.41 0.1,0.62 m 0.46,2.62 c -0.16,-0.86 -0.32,-1.71 -0.46,-2.56 0.14,0.85 0.3,1.7 0.46,2.56 m 0.08,0.58 c 0,-0.13 -0.03,-0.26 -0.06,-0.4 0.03,0.14 0.06,0.27 0.06,0.4 m 0.14,0.64 c -0.03,-0.1 -0.06,-0.19 -0.06,-0.3 0,0.11 0.03,0.2 0.06,0.3 m 0.12,0.72 c -0.01,-0.11 -0.04,-0.18 -0.04,-0.26 0,0.08 0.03,0.15 0.04,0.26 m 0.14,0.72 c -0.03,-0.08 -0.06,-0.18 -0.06,-0.26 0.03,0.08 0.03,0.18 0.06,0.26 m 0.14,0.72 c -0.03,-0.08 -0.03,-0.18 -0.06,-0.27 0.03,0.11 0.03,0.19 0.06,0.27 m 0.15,0.75 c -0.03,-0.11 -0.05,-0.19 -0.07,-0.3 0.02,0.11 0.04,0.19 0.07,0.3 m 0.14,0.72 c -0.03,-0.11 -0.03,-0.18 -0.06,-0.26 0.03,0.08 0.03,0.15 0.06,0.26 m 0.13,0.69 c 0,-0.07 -0.02,-0.13 -0.02,-0.21 0,0.08 0.02,0.14 0.02,0.21 m 0.16,0.73 c -0.03,-0.06 -0.03,-0.14 -0.05,-0.2 0.02,0.06 0.02,0.14 0.05,0.2 m 0.16,0.71 c -0.03,-0.05 -0.03,-0.11 -0.05,-0.16 0.02,0.05 0.02,0.11 0.05,0.16 m 0.16,0.72 c -0.02,-0.03 -0.02,-0.08 -0.02,-0.14 0,0.06 0,0.11 0.02,0.14 m 1.04,4.49 c 0,-0.04 -0.03,-0.06 -0.03,-0.08 0,0.02 0.03,0.04 0.03,0.08 m 0.19,0.74 c -0.03,-0.03 -0.03,-0.05 -0.03,-0.11 0,0.06 0,0.08 0.03,0.11 m 0.18,0.75 c -0.03,-0.03 -0.03,-0.09 -0.03,-0.14 0,0.05 0,0.08 0.03,0.14 m 0.19,0.74 c 0,-0.05 -0.03,-0.11 -0.05,-0.16 0.02,0.05 0.05,0.11 0.05,0.16 m 0.18,0.75 c 0,-0.06 -0.02,-0.13 -0.05,-0.21 0.03,0.08 0.05,0.15 0.05,0.21 m 0.22,0.75 c -0.03,-0.08 -0.05,-0.16 -0.08,-0.25 0.03,0.09 0.05,0.17 0.08,0.25 m 0.18,0.69 c -0.02,-0.05 -0.04,-0.14 -0.04,-0.19 0.02,0.05 0.02,0.11 0.04,0.19 m 0.19,0.72 c 0,-0.06 -0.02,-0.11 -0.05,-0.18 0.03,0.07 0.05,0.12 0.05,0.18 m 0.21,0.72 c -0.02,-0.06 -0.04,-0.13 -0.04,-0.21 0,0.08 0.02,0.15 0.04,0.21 m 0.22,0.72 c -0.03,-0.05 -0.05,-0.13 -0.08,-0.22 0.03,0.09 0.05,0.17 0.08,0.22 m 0.18,0.72 c 0,-0.05 -0.02,-0.11 -0.04,-0.19 0.02,0.08 0.04,0.14 0.04,0.19" /><path
         id="path82"
         style="fill:#bfdcf0;fill-opacity:1;fill-rule:nonzero;stroke:none"
         d="m 5371.95,772.465 c -22.23,0 -43.17,8.66 -58.85,24.363 l -104.54,103.684 -1.23,1.043 -0.45,0.636 h -0.02 l -0.02,0.028 -82.06,82.062 c -11.71,11.727 -19.57,26.509 -22.75,42.739 -5.28,27.09 3.18,54.89 22.62,74.32 l 84.42,84.43 90.32,90.33 c 15.55,15.51 36.24,24.07 58.32,24.07 22.24,0 43.18,-8.66 58.85,-24.35 l 104.54,-103.68 0.27,-0.23 0.55,-0.59 82.97,-82.97 c 15.6,-15.62 24.24,-36.39 24.27,-58.52 0.05,-22.14 -8.53,-42.912 -24.14,-58.517 L 5430.27,796.535 c -15.54,-15.515 -36.27,-24.07 -58.32,-24.07 m -71.89,569.765 c -46.91,0 -93.82,-17.84 -129.49,-53.55 l -90.33,-90.3 -35.81,-35.81 c -16.59,-19.2 -28.59,-41.04 -35.87,-64.08 0,-0.03 0,-0.03 0,-0.05 -0.1,-0.32 -0.21,-0.67 -0.32,-1.01 -0.03,-0.06 -0.05,-0.14 -0.05,-0.19 -0.1,-0.32 -0.21,-0.65 -0.29,-0.97 -0.03,-0.07 -0.06,-0.13 -0.09,-0.2 -0.08,-0.36 -0.18,-0.68 -0.29,-1.02 -0.08,-0.24 -0.13,-0.48 -0.22,-0.72 0,-0.05 -0.01,-0.11 -0.04,-0.16 -0.05,-0.18 -0.11,-0.37 -0.16,-0.53 0,-0.08 -0.03,-0.16 -0.06,-0.22 -0.05,-0.19 -0.11,-0.34 -0.13,-0.51 -0.03,-0.07 -0.05,-0.15 -0.05,-0.2 -0.05,-0.2 -0.11,-0.35 -0.16,-0.54 0,-0.06 -0.03,-0.11 -0.06,-0.15 -0.05,-0.2 -0.08,-0.39 -0.13,-0.57 -0.03,-0.05 -0.05,-0.13 -0.05,-0.19 -0.05,-0.18 -0.11,-0.34 -0.14,-0.51 -0.02,-0.07 -0.05,-0.15 -0.08,-0.21 -0.02,-0.18 -0.08,-0.34 -0.13,-0.53 0,-0.06 -0.03,-0.13 -0.06,-0.18 -0.04,-0.19 -0.07,-0.38 -0.13,-0.54 -0.02,-0.08 -0.02,-0.14 -0.05,-0.18 -0.03,-0.19 -0.08,-0.38 -0.14,-0.59 -0.02,-0.03 -0.02,-0.08 -0.02,-0.11 -0.06,-0.21 -0.1,-0.43 -0.16,-0.61 -0.02,-0.05 -0.02,-0.08 -0.02,-0.14 -0.06,-0.21 -0.11,-0.42 -0.17,-0.64 -0.03,-0.02 -0.03,-0.06 -0.03,-0.07 -0.34,-1.45 -0.69,-2.91 -1,-4.38 -0.03,-0.06 -0.03,-0.11 -0.03,-0.14 -0.06,-0.21 -0.11,-0.39 -0.14,-0.61 -0.02,-0.05 -0.02,-0.1 -0.05,-0.16 -0.03,-0.18 -0.08,-0.37 -0.11,-0.55 -0.03,-0.06 -0.03,-0.11 -0.05,-0.19 -0.02,-0.17 -0.05,-0.35 -0.1,-0.54 0,-0.04 -0.03,-0.13 -0.06,-0.21 -0.03,-0.16 -0.05,-0.32 -0.08,-0.48 -0.03,-0.08 -0.06,-0.19 -0.06,-0.26 -0.02,-0.17 -0.05,-0.3 -0.11,-0.46 0,-0.08 -0.01,-0.19 -0.04,-0.27 -0.03,-0.15 -0.05,-0.32 -0.08,-0.45 -0.03,-0.1 -0.03,-0.19 -0.06,-0.27 -0.02,-0.16 -0.05,-0.32 -0.08,-0.48 -0.03,-0.07 -0.05,-0.15 -0.05,-0.26 -0.03,-0.17 -0.06,-0.29 -0.08,-0.46 -0.02,-0.08 -0.05,-0.19 -0.05,-0.26 -0.03,-0.16 -0.05,-0.3 -0.08,-0.45 -0.03,-0.09 -0.06,-0.19 -0.06,-0.3 -0.02,-0.1 -0.05,-0.24 -0.08,-0.35 -0.03,-0.13 -0.05,-0.23 -0.05,-0.37 -0.03,-0.08 -0.03,-0.14 -0.06,-0.18 -0.12,-0.86 -0.29,-1.71 -0.42,-2.59 0,0 0,-0.03 0,-0.06 -0.03,-0.18 -0.08,-0.4 -0.1,-0.61 0,-0.02 0,-0.06 0,-0.08 -0.06,-0.21 -0.09,-0.42 -0.11,-0.64 0,-0.03 0,-0.06 0,-0.08 -0.06,-0.21 -0.08,-0.43 -0.11,-0.64 0,0 0,-0.03 0,-0.05 -0.06,-0.21 -0.08,-0.43 -0.11,-0.67 0,0 0,0 0,-0.02 -7.41,-51.1 6.75,-104.758 42.43,-146.164 l 56.24,-56.223 c 0.59,-0.605 1.26,-1.141 1.89,-1.727 l 81.9,-81.23 c 35.76,-35.781 82.77,-53.684 129.76,-53.684 46.9,0 93.79,17.844 129.49,53.555 l 174.75,174.746 c 20.64,20.637 35.31,45.037 44,71.017 -8.72,26.05 -23.42,50.53 -44.13,71.25 l -104.64,104.62 c -0.61,0.61 -1.29,1.14 -1.92,1.73 l -81.87,81.23 c -35.79,35.78 -82.8,53.68 -129.76,53.68" /><path
         id="path84"
         style="fill:#80c3ec;fill-opacity:1;fill-rule:nonzero;stroke:none"
         d="m 5371.95,781.965 c -19.7,0 -38.24,7.676 -52.18,21.621 l -105.04,104.191 -83.24,83.231 c -10.37,10.372 -17.33,23.472 -20.12,37.832 -4.67,24 2.79,48.59 20,65.79 l 174.74,174.73 c 13.73,13.76 32.08,21.33 51.6,21.33 19.71,0 38.25,-7.68 52.19,-21.65 l 104.8,-103.93 1.2,-1.04 0.18,-0.35 82.09,-82.08 c 28.59,-28.61 28.67,-75.09 0.13,-103.62 L 5423.55,803.266 c -13.73,-13.731 -32.08,-21.301 -51.6,-21.301" /><path
         id="path86"
         style="fill:#ffffff;fill-opacity:1;fill-rule:nonzero;stroke:none"
         d="m 5357.71,1281.18 c 16.43,0 32.92,-6.27 45.47,-18.85 l 105.07,-104.22 0.03,-0.03 83.15,-83.15 c 24.93,-24.9 24.99,-65.39 0.15,-90.18 L 5416.84,810.004 c -12.35,-12.375 -28.62,-18.535 -44.89,-18.535 -16.42,0 -32.9,6.289 -45.49,18.847 l -105.03,104.219 -0.03,0.028 -83.18,83.144 c -9.33,9.333 -15.17,20.883 -17.52,32.933 -3.92,20.13 1.87,41.77 17.36,57.25 l 84.45,84.46 90.32,90.29 c 12.36,12.38 28.6,18.54 44.88,18.54 m 0,19.01 c -22.08,0 -42.77,-8.56 -58.32,-24.1 l -90.32,-90.32 -84.42,-84.44 c -19.44,-19.43 -27.9,-47.22 -22.62,-74.31 3.18,-16.25 11.05,-31.02 22.75,-42.731 l 82.06,-82.078 0.03,-0.02 h 0.01 l 0.46,-0.644 1.22,-1.035 104.55,-103.684 c 15.67,-15.683 36.61,-24.375 58.84,-24.375 22.06,0 42.78,8.555 58.32,24.102 l 174.76,174.758 c 15.6,15.593 24.18,36.367 24.13,58.527 -0.03,22.11 -8.67,42.88 -24.27,58.53 l -82.96,82.94 -0.56,0.59 -0.27,0.23 -104.53,103.68 c -15.68,15.72 -36.61,24.38 -58.86,24.38" /><path
         id="path88"
         style="fill:#ffffff;fill-opacity:1;fill-rule:nonzero;stroke:none"
         d="m 5328.36,949.633 h -87.22 c -14.73,0 -26.72,11.855 -26.72,26.433 v 54.254 c 0,2.8 -2.26,5.06 -5.05,5.06 -2.8,0 -5.06,-2.26 -5.06,-5.06 v -54.254 c 0,-20.156 16.52,-36.562 36.83,-36.562 h 87.22 c 2.79,0 5.06,2.266 5.06,5.07 0,2.793 -2.27,5.059 -5.06,5.059" /><path
         id="path90"
         style="fill:#ffffff;fill-opacity:1;fill-rule:nonzero;stroke:none"
         d="m 5517.65,976.789 c -2.77,0.391 -5.34,-1.523 -5.73,-4.297 -1.86,-13.035 -13.82,-22.859 -27.81,-22.859 h -60.42 c -2.79,0 -5.06,-2.266 -5.06,-5.059 0,-2.804 2.27,-5.07 5.06,-5.07 h 60.42 c 9.25,0 18.17,3.215 25.12,9.023 6.95,5.821 11.46,13.821 12.71,22.532 0.39,2.773 -1.52,5.332 -4.29,5.73" /><path
         id="path92"
         style="fill:#ffffff;fill-opacity:1;fill-rule:nonzero;stroke:none"
         d="m 5335.62,964.027 c -35.62,10.645 -64.99,12.598 -83.38,12.371 -0.06,0 -0.13,0 -0.19,0 -3.9,0 -7.55,1.485 -10.28,4.192 -2.68,2.644 -4.15,6.133 -4.15,9.832 v 131.828 c 0,4.9 1.88,9.58 5.29,13.18 3.44,3.64 8.13,5.84 13.19,6.23 16.06,1.24 31.95,0.75 47.25,-1.47 19.65,-2.84 37.74,-8.49 53.84,-16.8 V 978.313 c 0,-2.801 2.26,-5.067 5.06,-5.067 2.79,0 5.05,2.266 5.05,5.067 v 144.857 c 39.71,20.64 82.79,20.29 105.21,18.18 8.44,-0.79 14.8,-7.6 14.8,-15.83 v -26.43 c 0,-2.79 2.27,-5.05 5.06,-5.05 2.8,0 5.06,2.26 5.06,5.05 v 10.59 c 8.97,-4.57 14.75,-13.48 14.75,-23.28 0,-2.79 2.26,-5.06 5.06,-5.06 2.79,0 5.05,2.27 5.05,5.06 0,15.26 -9.97,28.96 -24.86,34.27 v 4.85 c 0,6.5 -2.45,12.73 -6.91,17.54 -4.45,4.78 -10.5,7.75 -17.06,8.37 -11.68,1.09 -29.92,1.84 -50.4,-0.82 -22.16,-2.89 -42.53,-9.13 -60.59,-18.56 -17.26,9.01 -36.64,15.11 -57.67,18.16 -16.03,2.31 -32.68,2.84 -49.47,1.55 -7.58,-0.58 -14.6,-3.92 -19.76,-9.37 -5.21,-5.49 -8.07,-12.64 -8.07,-20.14 v -1.93 c -0.23,-0.06 -0.46,-0.13 -0.68,-0.23 -8.69,-3.64 -15.58,-10.36 -19.39,-18.93 -1.13,-2.55 0.01,-5.55 2.57,-6.68 0.66,-0.3 1.37,-0.44 2.05,-0.44 1.94,0 3.79,1.12 4.63,3 2.27,5.1 6.04,9.29 10.82,12.09 v -20.7 h -18.13 c -2.8,0 -5.06,-2.27 -5.06,-5.06 v -16.25 c 0,-2.79 2.26,-5.06 5.06,-5.06 h 18.13 v -10.73 h -13.08 v 1.96 c 0,2.79 -2.26,5.05 -5.05,5.05 -2.8,0 -5.06,-2.26 -5.06,-5.05 v -7.02 c 0,-2.8 2.26,-5.07 5.06,-5.07 h 18.13 v -50.778 c 0,-6.426 2.54,-12.481 7.15,-17.031 4.73,-4.668 11.03,-7.196 17.71,-7.11 17.68,0.227 45.97,-1.668 80.35,-11.953 0.48,-0.144 0.97,-0.215 1.45,-0.215 2.18,0 4.19,1.426 4.85,3.614 0.8,2.675 -0.72,5.5 -3.39,6.3" /><path
         id="path94"
         style="fill:#ffffff;fill-opacity:1;fill-rule:nonzero;stroke:none"
         d="m 5463.54,1116.01 c 2.8,-0.12 5.16,2.05 5.28,4.84 0.12,2.79 -2.05,5.15 -4.85,5.27 -19.92,0.84 -50.02,-0.59 -80.3,-12.18 -2.62,-1 -3.91,-3.92 -2.92,-6.53 0.77,-2.02 2.69,-3.26 4.73,-3.26 0.59,0 1.21,0.11 1.81,0.33 28.66,10.97 57.29,12.33 76.25,11.53" /><path
         id="path96"
         style="fill:#ffffff;fill-opacity:1;fill-rule:nonzero;stroke:none"
         d="m 5421.81,1088.64 c -0.5,2.75 -3.14,4.57 -5.89,4.07 -11.24,-2.06 -22.09,-5.08 -32.25,-8.97 -2.62,-0.99 -3.91,-3.92 -2.92,-6.53 0.77,-2.02 2.69,-3.25 4.73,-3.25 0.59,0 1.21,0.11 1.81,0.33 9.58,3.66 19.82,6.51 30.45,8.47 2.76,0.49 4.57,3.13 4.07,5.88" /><path
         id="path98"
         style="fill:#ffffff;fill-opacity:1;fill-rule:nonzero;stroke:none"
         d="m 5398.81,1053.36 c -0.86,2.67 -3.71,4.12 -6.37,3.27 -3.03,-0.97 -6.04,-2.04 -8.97,-3.16 -2.61,-1.01 -3.92,-3.93 -2.91,-6.54 0.77,-2.02 2.68,-3.25 4.72,-3.25 0.61,0 1.21,0.11 1.81,0.34 2.76,1.06 5.61,2.06 8.46,2.98 2.65,0.86 4.12,3.71 3.26,6.36" /><path
         id="path100"
         style="fill:#ffffff;fill-opacity:1;fill-rule:nonzero;stroke:none"
         d="m 5388.85,1025.23 c -1.89,-0.65 -3.77,-1.34 -5.62,-2.05 -2.6,-1.01 -3.9,-3.94 -2.9,-6.55 0.77,-2.01 2.7,-3.24 4.73,-3.24 0.6,0 1.22,0.11 1.82,0.34 1.73,0.68 3.51,1.32 5.28,1.94 2.63,0.9 4.03,3.79 3.12,6.43 -0.91,2.64 -3.8,4.04 -6.43,3.13" /><path
         id="path102"
         style="fill:#ffffff;fill-opacity:1;fill-rule:nonzero;stroke:none"
         d="m 5338.47,1114.48 c -29.85,11.11 -59.38,12.46 -78.9,11.64 -2.79,-0.12 -4.96,-2.48 -4.84,-5.27 0.11,-2.79 2.48,-4.96 5.26,-4.84 18.59,0.78 46.68,-0.5 74.94,-11.03 0.59,-0.21 1.18,-0.31 1.77,-0.31 2.05,0 3.98,1.26 4.75,3.29 0.96,2.62 -0.37,5.54 -2.98,6.52" /><path
         id="path104"
         style="fill:#ffffff;fill-opacity:1;fill-rule:nonzero;stroke:none"
         d="m 5336.7,1074.46 c 2.05,0 3.98,1.27 4.75,3.31 0.96,2.61 -0.37,5.52 -2.98,6.5 -29.85,11.12 -59.38,12.47 -78.9,11.65 -2.79,-0.12 -4.96,-2.48 -4.84,-5.27 0.11,-2.79 2.48,-4.96 5.26,-4.85 18.59,0.79 46.68,-0.48 74.94,-11.01 0.59,-0.22 1.18,-0.33 1.77,-0.33" /><path
         id="path106"
         style="fill:#ffffff;fill-opacity:1;fill-rule:nonzero;stroke:none"
         d="m 5259.57,1065.73 c -2.79,-0.12 -4.96,-2.48 -4.84,-5.28 0.11,-2.79 2.48,-4.95 5.26,-4.84 19.58,0.83 38.47,-0.95 56.12,-5.25 0.4,-0.1 0.8,-0.15 1.2,-0.15 2.28,0 4.35,1.55 4.92,3.86 0.66,2.71 -1,5.45 -3.71,6.12 -18.59,4.53 -38.42,6.4 -58.95,5.54" /><path
         id="path108"
         style="fill:#ffffff;fill-opacity:1;fill-rule:nonzero;stroke:none"
         d="m 5338.47,1054.07 c -1.72,0.64 -3.48,1.27 -5.24,1.86 -2.64,0.89 -5.52,-0.54 -6.4,-3.18 -0.89,-2.66 0.53,-5.53 3.18,-6.42 1.65,-0.56 3.3,-1.14 4.92,-1.74 0.59,-0.22 1.18,-0.32 1.77,-0.32 2.05,0 3.98,1.26 4.75,3.29 0.97,2.62 -0.37,5.54 -2.98,6.51" /><path
         id="path110"
         style="fill:#ffffff;fill-opacity:1;fill-rule:nonzero;stroke:none"
         d="m 5338.47,1023.87 c -29.85,11.12 -59.38,12.47 -78.9,11.65 -2.79,-0.12 -4.96,-2.47 -4.84,-5.26 0.11,-2.8 2.47,-4.97 5.26,-4.85 18.59,0.79 46.68,-0.5 74.94,-11.02 0.59,-0.22 1.18,-0.32 1.77,-0.32 2.05,0 3.98,1.25 4.74,3.3 0.97,2.61 -0.36,5.53 -2.97,6.5" /><path
         id="path112"
         style="fill:#ffffff;fill-opacity:1;fill-rule:nonzero;stroke:none"
         d="m 5338.47,993.676 c -29.85,11.114 -59.38,12.464 -78.9,11.644 -2.79,-0.11 -4.96,-2.48 -4.84,-5.27 0.11,-2.792 2.47,-4.968 5.26,-4.843 18.59,0.781 46.68,-0.488 74.94,-11.016 0.59,-0.214 1.18,-0.32 1.77,-0.32 2.05,0 3.98,1.258 4.74,3.301 0.97,2.617 -0.36,5.527 -2.97,6.504" /><path
         id="path114"
         style="fill:#ffffff;fill-opacity:1;fill-rule:nonzero;stroke:none"
         d="m 5409.61,1028.23 c 0,30.52 24.83,55.37 55.37,55.37 30.53,0 55.37,-24.85 55.37,-55.37 0,-30.542 -24.84,-55.386 -55.37,-55.386 -30.54,0 -55.37,24.844 -55.37,55.386 z m 55.37,-63.656 c 35.09,0 63.64,28.555 63.64,63.656 0,35.08 -28.55,63.64 -63.64,63.64 -35.1,0 -63.65,-28.56 -63.65,-63.64 0,-20.17 9.42,-38.167 24.1,-49.839 l -55.52,-50.809 c -1.74,-1.562 -3.97,-2.355 -6.32,-2.227 -2.33,0.118 -4.48,1.153 -6.05,2.891 -1.56,1.738 -2.36,3.992 -2.24,6.328 0.13,2.344 1.16,4.492 2.89,6.063 0.02,0.011 0.04,0.031 0.05,0.039 l 35.4,33.183 c 1.67,1.555 1.77,4.172 0.22,5.84 -1.57,1.68 -4.18,1.778 -5.85,0.215 l -35.37,-33.152 c -3.37,-3.047 -5.36,-7.219 -5.6,-11.75 -0.24,-4.551 1.3,-8.914 4.35,-12.305 3.36,-3.73 8.01,-5.633 12.68,-5.633 4.06,0 8.14,1.434 11.39,4.364 0.01,0.011 0.02,0.011 0.03,0.019 l 56.91,52.102 c 9.54,-5.704 20.69,-8.985 32.58,-8.985" /><path
         id="path116"
         style="fill:#ffffff;fill-opacity:1;fill-rule:nonzero;stroke:none"
         d="m 5464.98,983.422 c 24.71,0 44.81,20.098 44.81,44.808 0,11.96 -4.67,23.21 -13.13,31.68 -1.62,1.61 -4.24,1.61 -5.85,0 -1.62,-1.62 -1.62,-4.24 0,-5.86 6.9,-6.9 10.69,-16.07 10.69,-25.82 0,-20.15 -16.38,-36.539 -36.52,-36.539 -9.76,0 -18.94,3.801 -25.83,10.699 -1.62,1.62 -4.24,1.62 -5.85,0 -1.62,-1.62 -1.62,-4.234 0,-5.855 8.46,-8.457 19.71,-13.113 31.68,-13.113" /><g
         transform="scale(10)"
         id="g118"><text
           id="text122"
           style="font-variant:normal;font-weight:bold;font-size:27px;font-family:PFSquareSansPro;-inkscape-font-specification:PFSquareSansPro-Bold;writing-mode:lr-tb;fill:#43454d;fill-opacity:1;fill-rule:nonzero;stroke:none"
           transform="matrix(1,0,0,-1,579.923,76.7578)"><tspan
             id="tspan120"
             y="0"
             x="0 16.523853 30.671366 42.901878 57.697781 71.899879 86.209488 93.634239 108.42917 118.85107 132.26997 139.53268 154.54434 168.25911 178.68102 192.72102 199.52472 211.75612">Vocabulary Service</tspan></text>
</g></g></g></svg>